#N canvas 1065 168 713 710 10;
#X obj 219 23 loadbang;
#X obj 220 54 delay 300;
#X msg 220 92 1;
#X msg 178 119 open;
#X obj 222 162 terminal_tedium_adc;
#X text 264 140 adc 0-5;
#N canvas 0 50 450 300 removenoise 0;
#X obj 99 26 inlet;
#X obj 288 94 f;
#X obj 99 173 i;
#X obj 99 199 change;
#X text 315 125 smooth and remove noise;
#X obj 99 228 outlet;
#X obj 99 53 t f b;
#X obj 99 123 expr ($f1*(($f2*-1)+1))+($f3*$f2);
#X obj 60 96 sel 0;
#X obj 60 144 0;
#X msg 202 88 0.3;
#X connect 0 0 6 0;
#X connect 1 0 7 2;
#X connect 2 0 3 0;
#X connect 3 0 5 0;
#X connect 6 0 8 0;
#X connect 6 1 10 0;
#X connect 7 0 1 0;
#X connect 7 0 2 0;
#X connect 8 0 9 0;
#X connect 8 1 7 0;
#X connect 9 0 1 0;
#X connect 9 0 10 0;
#X connect 9 0 7 0;
#X connect 10 0 7 1;
#X restore 222 193 pd removenoise;
#N canvas 0 50 450 300 removenoise 0;
#X obj 99 26 inlet;
#X obj 288 94 f;
#X obj 99 173 i;
#X obj 99 199 change;
#X text 315 125 smooth and remove noise;
#X obj 99 228 outlet;
#X obj 99 53 t f b;
#X obj 99 123 expr ($f1*(($f2*-1)+1))+($f3*$f2);
#X obj 60 96 sel 0;
#X obj 60 144 0;
#X msg 202 88 0.3;
#X connect 0 0 6 0;
#X connect 1 0 7 2;
#X connect 2 0 3 0;
#X connect 3 0 5 0;
#X connect 6 0 8 0;
#X connect 6 1 10 0;
#X connect 7 0 1 0;
#X connect 7 0 2 0;
#X connect 8 0 9 0;
#X connect 8 1 7 0;
#X connect 9 0 1 0;
#X connect 9 0 10 0;
#X connect 9 0 7 0;
#X connect 10 0 7 1;
#X restore 248 220 pd removenoise;
#N canvas 0 50 450 300 removenoise 0;
#X obj 99 26 inlet;
#X obj 288 94 f;
#X obj 99 173 i;
#X obj 99 199 change;
#X text 315 125 smooth and remove noise;
#X obj 99 228 outlet;
#X obj 99 53 t f b;
#X obj 99 123 expr ($f1*(($f2*-1)+1))+($f3*$f2);
#X obj 60 96 sel 0;
#X obj 60 144 0;
#X msg 202 88 0.3;
#X connect 0 0 6 0;
#X connect 1 0 7 2;
#X connect 2 0 3 0;
#X connect 3 0 5 0;
#X connect 6 0 8 0;
#X connect 6 1 10 0;
#X connect 7 0 1 0;
#X connect 7 0 2 0;
#X connect 8 0 9 0;
#X connect 8 1 7 0;
#X connect 9 0 1 0;
#X connect 9 0 10 0;
#X connect 9 0 7 0;
#X connect 10 0 7 1;
#X restore 274 242 pd removenoise;
#N canvas 0 50 450 300 removenoise 0;
#X obj 99 26 inlet;
#X obj 288 94 f;
#X obj 99 173 i;
#X obj 99 199 change;
#X text 315 125 smooth and remove noise;
#X obj 99 228 outlet;
#X obj 99 53 t f b;
#X obj 99 123 expr ($f1*(($f2*-1)+1))+($f3*$f2);
#X obj 60 96 sel 0;
#X obj 60 144 0;
#X msg 202 88 0.3;
#X connect 0 0 6 0;
#X connect 1 0 7 2;
#X connect 2 0 3 0;
#X connect 3 0 5 0;
#X connect 6 0 8 0;
#X connect 6 1 10 0;
#X connect 7 0 1 0;
#X connect 7 0 2 0;
#X connect 8 0 9 0;
#X connect 8 1 7 0;
#X connect 9 0 1 0;
#X connect 9 0 10 0;
#X connect 9 0 7 0;
#X connect 10 0 7 1;
#X restore 301 266 pd removenoise;
#N canvas 0 50 450 300 removenoise 0;
#X obj 99 26 inlet;
#X obj 288 94 f;
#X obj 99 173 i;
#X obj 99 199 change;
#X text 315 125 smooth and remove noise;
#X obj 99 228 outlet;
#X obj 99 53 t f b;
#X obj 99 123 expr ($f1*(($f2*-1)+1))+($f3*$f2);
#X obj 60 96 sel 0;
#X obj 60 144 0;
#X msg 202 88 0.3;
#X connect 0 0 6 0;
#X connect 1 0 7 2;
#X connect 2 0 3 0;
#X connect 3 0 5 0;
#X connect 6 0 8 0;
#X connect 6 1 10 0;
#X connect 7 0 1 0;
#X connect 7 0 2 0;
#X connect 8 0 9 0;
#X connect 8 1 7 0;
#X connect 9 0 1 0;
#X connect 9 0 10 0;
#X connect 9 0 7 0;
#X connect 10 0 7 1;
#X restore 324 290 pd removenoise;
#N canvas 0 50 450 300 removenoise 0;
#X obj 99 26 inlet;
#X obj 288 94 f;
#X obj 99 173 i;
#X obj 99 199 change;
#X text 315 125 smooth and remove noise;
#X obj 99 228 outlet;
#X obj 99 53 t f b;
#X obj 99 123 expr ($f1*(($f2*-1)+1))+($f3*$f2);
#X obj 60 96 sel 0;
#X obj 60 144 0;
#X msg 202 88 0.3;
#X connect 0 0 6 0;
#X connect 1 0 7 2;
#X connect 2 0 3 0;
#X connect 3 0 5 0;
#X connect 6 0 8 0;
#X connect 6 1 10 0;
#X connect 7 0 1 0;
#X connect 7 0 2 0;
#X connect 8 0 9 0;
#X connect 8 1 7 0;
#X connect 9 0 1 0;
#X connect 9 0 10 0;
#X connect 9 0 7 0;
#X connect 10 0 7 1;
#X restore 353 315 pd removenoise;
#X msg 314 113 deadband 2;
#X obj 221 120 metro 10;
#X msg 353 133 smooth 4;
#X obj 15 119 sig~;
#X obj 15 163 outlet~;
#X obj 38 197 sig~;
#X obj 38 241 outlet~;
#X obj 57 270 sig~;
#X obj 57 314 outlet~;
#X obj 81 120 sig~;
#X obj 81 164 outlet~;
#X obj 102 200 sig~;
#X obj 102 244 outlet~;
#X obj 127 269 sig~;
#X obj 127 313 outlet~;
#X obj 193 356 s ttk1;
#X obj 249 425 s ttk2;
#X obj 308 389 s ttk4;
#X obj 272 325 s ttk3;
#X obj 417 421 s ttk5;
#X obj 498 407 s ttk6;
#X obj 485 375 / 4001;
#X obj 407 393 / 4001;
#X obj 308 364 / 4001;
#X obj 249 399 / 4001;
#X obj 180 331 / 4001;
#X obj 272 298 / 4001;
#X obj 12 33 vsl 15 60 0 1 0 0 ttk1 empty empty 0 -9 0 10 -262144 -1
-1 0 1;
#X obj 35 33 vsl 15 60 0 1 0 0 ttk2 empty empty 0 -9 0 10 -262144 -1
-1 0 1;
#X obj 57 33 vsl 15 60 0 1 0 0 ttk3 empty empty 0 -9 0 10 -262144 -1
-1 0 1;
#X obj 80 33 vsl 15 60 0 1 0 0 ttk4 empty empty 0 -9 0 10 -262144 -1
-1 0 1;
#X obj 101 33 vsl 15 60 0 1 0 0 ttk5 empty empty 0 -9 0 10 -262144
-1 -1 0 1;
#X obj 123 33 vsl 15 60 0 1 0 0 ttk7 empty empty 0 -9 0 10 -262144
-1 -1 0 1;
#X connect 0 0 1 0;
#X connect 1 0 3 0;
#X connect 1 0 2 0;
#X connect 2 0 13 0;
#X connect 3 0 4 0;
#X connect 4 0 6 0;
#X connect 4 1 7 0;
#X connect 4 2 8 0;
#X connect 4 3 9 0;
#X connect 4 4 10 0;
#X connect 4 5 11 0;
#X connect 6 0 37 0;
#X connect 7 0 36 0;
#X connect 8 0 38 0;
#X connect 9 0 35 0;
#X connect 10 0 34 0;
#X connect 11 0 33 0;
#X connect 12 0 4 0;
#X connect 13 0 4 0;
#X connect 14 0 4 0;
#X connect 15 0 16 0;
#X connect 17 0 18 0;
#X connect 19 0 20 0;
#X connect 21 0 22 0;
#X connect 23 0 24 0;
#X connect 25 0 26 0;
#X connect 33 0 32 0;
#X connect 33 0 44 0;
#X connect 34 0 31 0;
#X connect 34 0 43 0;
#X connect 35 0 29 0;
#X connect 35 0 42 0;
#X connect 36 0 28 0;
#X connect 36 0 40 0;
#X connect 37 0 27 0;
#X connect 37 0 39 0;
#X connect 38 0 30 0;
#X connect 38 0 41 0;
#X connect 39 0 15 0;
#X connect 40 0 17 0;
#X connect 41 0 19 0;
#X connect 42 0 21 0;
#X connect 43 0 23 0;
#X connect 44 0 25 0;
#X coords 0 -1 1 1 130 90 1 10 10;
