#N canvas 533 124 782 552 10;
#X obj 246 288 tedium_output 12;
#X obj 10 270 tedium_output 16;
#X text 461 29 switchLED;
#X obj 380 135 tedium_output 26;
#X obj 386 27 inlet~;
#X obj 27 186 inlet~;
#X obj 264 172 inlet~;
#X text 144 191 top LED;
#X text 341 178 bottom LED;
#X obj 383 74 threshold~ 0.99 0 0.99 0;
#X obj 26 212 threshold~ 0.99 0 0.99 0;
#X obj 264 208 threshold~ 0.99 0 0.99 0;
#X obj 62 26 bng 15 100 50 0 empty empty empty 17 7 0 10 -258113 -4034
-1;
#X obj 104 26 bng 15 100 50 0 empty empty empty 17 7 0 10 -4034 -258113
-1;
#X obj 17 26 bng 15 100 50 0 empty empty empty 17 7 0 10 -258113 -258113
-1;
#N canvas 0 50 450 300 ledpulse 0;
#X obj 94 50 inlet;
#X obj 96 213 outlet;
#X obj 111 78 bng 15 250 50 0 empty empty empty 17 7 0 10 -262144 -1
-1;
#X obj 111 98 t b b;
#X msg 111 142 0;
#X msg 148 144 1;
#X floatatom 114 173 5 0 0 0 - - -, f 5;
#X obj 111 120 delay 10;
#X connect 0 0 2 0;
#X connect 2 0 3 0;
#X connect 3 0 7 0;
#X connect 3 1 5 0;
#X connect 4 0 6 0;
#X connect 4 0 1 0;
#X connect 5 0 6 0;
#X connect 5 0 1 0;
#X connect 7 0 4 0;
#X restore 388 104 pd ledpulse;
#N canvas 0 50 450 300 ledpulse 0;
#X obj 94 50 inlet;
#X obj 96 213 outlet;
#X obj 111 78 bng 15 250 50 0 empty empty empty 17 7 0 10 -262144 -1
-1;
#X obj 111 98 t b b;
#X msg 111 142 0;
#X msg 148 144 1;
#X floatatom 114 173 5 0 0 0 - - -, f 5;
#X obj 111 120 delay 10;
#X connect 0 0 2 0;
#X connect 2 0 3 0;
#X connect 3 0 7 0;
#X connect 3 1 5 0;
#X connect 4 0 6 0;
#X connect 4 0 1 0;
#X connect 5 0 6 0;
#X connect 5 0 1 0;
#X connect 7 0 4 0;
#X restore 284 231 pd ledpulse;
#N canvas 0 50 450 300 ledpulse 0;
#X obj 94 50 inlet;
#X obj 96 213 outlet;
#X obj 111 78 bng 15 250 50 0 empty empty empty 17 7 0 10 -262144 -1
-1;
#X obj 111 98 t b b;
#X msg 111 142 0;
#X msg 148 144 1;
#X floatatom 114 173 5 0 0 0 - - -, f 5;
#X obj 111 120 delay 10;
#X connect 0 0 2 0;
#X connect 2 0 3 0;
#X connect 3 0 7 0;
#X connect 3 1 5 0;
#X connect 4 0 6 0;
#X connect 4 0 1 0;
#X connect 5 0 6 0;
#X connect 5 0 1 0;
#X connect 7 0 4 0;
#X restore 42 236 pd ledpulse;
#X text 17 41 D1 Out, f 4;
#X text 63 41 D2 Out, f 4;
#X connect 4 0 9 0;
#X connect 5 0 10 0;
#X connect 6 0 11 0;
#X connect 9 0 15 0;
#X connect 9 0 13 0;
#X connect 10 0 14 0;
#X connect 10 0 17 0;
#X connect 11 0 16 0;
#X connect 11 0 12 0;
#X connect 15 0 3 0;
#X connect 16 0 0 0;
#X connect 17 0 1 0;
#X coords 0 -1 1 1 115 65 1 10 10;
